<svg width="116" height="106" viewBox="0 0 116 106" fill="none" xmlns="http://www.w3.org/2000/svg">
<g id="CLEAR">
<g id="CLEAR_SKY" opacity="0.71">
<path id="Vector" opacity="0.97" d="M63 90.5C63 81.7 63.1 81 65 81C66.9 81 67 81.7 67 90.5C67 99.3 66.9 100 65 100C63.1 100 63 99.3 63 90.5Z" fill="#FAFD0F"/>
<path id="Vector_2" opacity="0.97" d="M39.4 92.5C38.7 90.9 46.8 76.9 48.7 76.2C51.7 75.3 50.9 79.4 46.9 86.5C42.7 93.8 40.5 95.6 39.4 92.5Z" fill="#FAFD0F"/>
<path id="Vector_3" opacity="0.97" d="M87.3 92.8C86.7 92.1 84.7 88.5 82.7 84.9C79.9 79.9 79.3 78.1 80.2 77.2C80.9 76.5 81.7 76 82.1 76C83.3 76 91 90 91 92.1C91 94.2 88.7 94.6 87.3 92.8Z" fill="#FAFD0F"/>
<path id="Vector_4" opacity="0.97" d="M21.4 74.8C20.6 73.5 22.3 72.2 30.8 67.4C36.9 64 39 63.7 39 66.5C39 68 26.1 76 23.6 76C22.8 76 21.8 75.5 21.4 74.8Z" fill="#FAFD0F"/>
<path id="Vector_5" opacity="0.97" d="M99 72.5C91 67.6 90.5 67.1 92.3 65.3C93.5 64.1 94.7 64.4 101.1 68.2C105.2 70.6 108.6 73.4 108.8 74.3C109.3 77 105.2 76.3 99 72.5Z" fill="#FAFD0F"/>
<path id="Vector_6" opacity="0.97" d="M55.1 69.4C41.8 62.7 39.3 45.7 50 34.9C60.8 24.1 77.8 26.8 84.5 40.4C91.6 54.9 82.8 70.5 66.8 71.7C61.4 72.1 59.8 71.8 55.1 69.4ZM66.8 33.5C73.6 30 63.4 63.6 61.5 56.5C57.5 41.6 58.2 28.3 50.4 41.6C41.7 56.4 52 27.5 66.8 33.5Z" fill="#FAFD0F"/>
<path id="Vector_7" opacity="0.97" d="M15 50C15 48 15.5 47.9 24.8 48.2C32.6 48.4 34.5 48.8 34.5 50C34.5 51.2 32.6 51.6 24.8 51.8C15.5 52.1 15 52 15 50Z" fill="#FAFD0F"/>
<path id="Vector_8" opacity="0.97" d="M96 50C96 48.1 96.7 48 105.4 48C112.5 48 114.9 48.3 115.3 49.4C116.2 51.7 115.1 52 105.3 52C96.7 52 96 51.9 96 50Z" fill="#FAFD0F"/>
<path id="Vector_9" opacity="0.97" d="M28.6 31.7C21.3 27.2 19.8 25.4 22.4 24.4C24.7 23.5 39.2 31.8 38.8 33.8C38.3 36.6 35.7 36.1 28.6 31.7Z" fill="#FAFD0F"/>
<path id="Vector_10" opacity="0.97" d="M91.5 35C90.5 33.4 91.7 32.3 99 28C106.5 23.6 109 23.1 109 25.8C109 27 106.5 29 101.6 31.8C93.9 36.2 92.5 36.6 91.5 35Z" fill="#FAFD0F"/>
<path id="Vector_11" opacity="0.97" d="M43.1 16.5C39.1 9.40001 38.3 5.30001 41.3 6.20001C43.2 6.90001 51.3 20.9 50.6 22.5C49.5 25.6 47.3 23.8 43.1 16.5Z" fill="#FAFD0F"/>
<path id="Vector_12" opacity="0.97" d="M79.5 23C78.6 21.6 87.4 6.50002 89.1 6.50002C91.8 6.50002 91.1 10 87 17C83.2 23.6 80.9 25.3 79.5 23Z" fill="#FAFD0F"/>
<path id="Vector_13" opacity="0.97" d="M63.7 19.4C63.3 19 63 14.5 63 9.3C63 0.6 63.1 0 65 0C67 0 67.1 0.5 66.8 9.7C66.5 18.6 65.6 21.3 63.7 19.4Z" fill="#FAFD0F"/>
</g>
<g id="CLOUD134">
<path id="CLOUD1" d="M33.3378 104.655C29.0378 103.655 24.2378 100.055 22.3378 96.5554C21.2378 94.3554 20.3378 93.7554 18.9378 94.1554C14.0378 95.7554 4.43775 90.5554 1.43775 84.5554C-0.462247 80.9554 -0.462247 72.3554 1.33775 68.7554C2.93775 65.8554 9.33775 59.6554 10.9378 59.6554C11.3378 59.6554 12.3378 58.0554 13.0378 55.9554C13.6378 53.9554 16.0378 50.3554 18.2378 47.9554C26.0378 39.4554 38.9378 38.6554 47.5378 46.0554C50.9378 48.9554 51.7378 49.2554 54.2378 48.3554C58.2378 46.9554 66.6378 48.0554 69.7378 50.3554C71.2378 51.4554 73.3378 53.7554 74.4378 55.4554C75.7378 57.4554 76.9378 58.3554 77.9378 57.9554C81.9378 56.3554 90.7378 56.4554 94.4378 58.1554C98.7378 60.2554 103.6 66.4 104.5 71.5C106.2 82.3 97.1378 91.6554 86.4378 91.6554C83.7378 91.6554 82.1378 92.4554 79.0378 95.5554C72.7378 101.855 63.8378 103.255 55.8378 99.2554C52.7378 97.6554 52.4378 97.7554 50.0378 100.055C45.3378 104.355 39.2378 106.055 33.3378 104.655ZM25.8378 50.8554C28.0378 49.7554 12.8421 63.2943 15.9378 64.1554C5.7 54.0554 78.4378 47.0184 77.9378 63.1629C79.5378 65.7629 87.9 63.2554 92.2 62.7554C96.9 62.2554 77.4378 92.8554 79.1378 89.2554C79.9378 87.2554 80.7378 87.0554 84.7378 87.3554C96.1378 88.3554 42.1 101.155 36.2 91.6554C32.4 85.3554 86.2378 58.9554 78.8378 62.7554C76.5378 63.8554 77.9378 63.3629 77.9378 63.1629C72.2378 51.3629 66.5 78.7199 58.2 83.0199C55.1 84.6199 50.6378 54.8554 47.6378 51.6554C40.8378 44.3554 57.8378 49.3189 50.0378 54.4189C46.2378 56.9189 0.282535 69.1199 0.282535 72.5199C0.282535 73.6199 28.4378 49.6554 25.8378 50.8554C15.1378 56.0554 27.6 46.4554 38.2 51.6554C41.3 53.0554 41.3 71.4554 44.2 70.9554C47.9 70.3554 46.4378 92.3238 47.5378 95.1238C49.1378 98.9238 43.9378 86.2554 47.6378 87.3554C52.0378 88.6554 21.3378 53.0554 25.8378 50.8554Z" fill="#3870FF"/>
</g>
</g>
</svg>
