<svg width="101" height="100" viewBox="0 0 101 100" fill="none" xmlns="http://www.w3.org/2000/svg">
<g id="CLEAR_SKY" opacity="0.71">
<path id="Vector" opacity="0.97" d="M48 90.5C48 81.7 48.1 81 50 81C51.9 81 52 81.7 52 90.5C52 99.3 51.9 100 50 100C48.1 100 48 99.3 48 90.5Z" fill="#FAFD0F"/>
<path id="Vector_2" opacity="0.97" d="M24.4 92.5C23.7 90.9 31.8 76.9 33.7 76.2C36.7 75.3 35.9 79.4 31.9 86.5C27.7 93.8 25.5 95.6 24.4 92.5Z" fill="#FAFD0F"/>
<path id="Vector_3" opacity="0.97" d="M72.3 92.8C71.7 92.1 69.7 88.5 67.7 84.9C64.9 79.9 64.3 78.1 65.2 77.2C65.9 76.5 66.7 76 67.1 76C68.3 76 76 90 76 92.1C76 94.2 73.7 94.6 72.3 92.8Z" fill="#FAFD0F"/>
<path id="Vector_4" opacity="0.97" d="M6.39998 74.8C5.59998 73.5 7.29998 72.2 15.8 67.4C21.9 64 24 63.7 24 66.5C24 68 11.1 76 8.59998 76C7.79998 76 6.79998 75.5 6.39998 74.8Z" fill="#FAFD0F"/>
<path id="Vector_5" opacity="0.97" d="M84 72.5C76 67.6 75.5 67.1 77.3 65.3C78.5 64.1 79.7 64.4 86.1 68.2C90.2 70.6 93.6 73.4 93.8 74.3C94.3 77 90.2 76.3 84 72.5Z" fill="#FAFD0F"/>
<path id="Vector_6" opacity="0.97" d="M40.1 69.4C26.8 62.7 24.3 45.7 35 34.9C45.8 24.1 62.8 26.8 69.5 40.4C76.6 54.9 67.8 70.5 51.8 71.7C46.4 72.1 44.8 71.8 40.1 69.4ZM51.8 33.5C58.6 30 48.4 63.6 46.5 56.5C42.5 41.6 43.2 28.3 35.4 41.6C26.7 56.4 37 27.5 51.8 33.5Z" fill="#FAFD0F"/>
<path id="Vector_7" opacity="0.97" d="M0 50C0 48 0.5 47.9 9.8 48.2C17.6 48.4 19.5 48.8 19.5 50C19.5 51.2 17.6 51.6 9.8 51.8C0.5 52.1 0 52 0 50Z" fill="#FAFD0F"/>
<path id="Vector_8" opacity="0.97" d="M81 50C81 48.1 81.7 48 90.4 48C97.5 48 99.9 48.3 100.3 49.4C101.2 51.7 100.1 52 90.3 52C81.7 52 81 51.9 81 50Z" fill="#FAFD0F"/>
<path id="Vector_9" opacity="0.97" d="M13.6 31.7C6.29999 27.2 4.79999 25.4 7.39999 24.4C9.69999 23.5 24.2 31.8 23.8 33.8C23.3 36.6 20.7 36.1 13.6 31.7Z" fill="#FAFD0F"/>
<path id="Vector_10" opacity="0.97" d="M76.5 35C75.5 33.4 76.7 32.3 84 28C91.5 23.6 94 23.1 94 25.8C94 27 91.5 29 86.6 31.8C78.9 36.2 77.5 36.6 76.5 35Z" fill="#FAFD0F"/>
<path id="Vector_11" opacity="0.97" d="M28.1 16.5C24.1 9.40001 23.3 5.30001 26.3 6.20001C28.2 6.90001 36.3 20.9 35.6 22.5C34.5 25.6 32.3 23.8 28.1 16.5Z" fill="#FAFD0F"/>
<path id="Vector_12" opacity="0.97" d="M64.5 23C63.6 21.6 72.4 6.50002 74.1 6.50002C76.8 6.50002 76.1 10 72 17C68.2 23.6 65.9 25.3 64.5 23Z" fill="#FAFD0F"/>
<path id="Vector_13" opacity="0.97" d="M48.7 19.4C48.3 19 48 14.5 48 9.3C48 0.6 48.1 0 50 0C52 0 52.1 0.5 51.8 9.7C51.5 18.6 50.6 21.3 48.7 19.4Z" fill="#FAFD0F"/>
</g>
</svg>
