<svg width="105" height="76" viewBox="0 0 105 76" fill="none" xmlns="http://www.w3.org/2000/svg">
<g id="DOUBLE_SKY">
<path id="Vector" d="M32.4271 73.6871C28.4271 72.2871 23.2271 67.8871 22.3271 65.2871C22.0271 64.0871 20.5271 63.6871 16.9271 63.5871C10.4271 63.4871 4.82705 59.8871 1.92705 53.9871C-2.17295 45.4871 0.427054 36.1871 8.22705 31.3871C10.9271 29.7871 12.9271 27.6871 13.3271 26.1871C15.1271 19.2871 23.9271 11.1871 29.7271 11.1871C31.6271 11.0871 33.1271 9.98706 35.1271 7.08706C40.6271 -0.912945 52.8271 -2.41294 60.1271 3.98706C61.4271 5.08706 64.0271 5.58706 68.9271 5.68706C75.8271 5.68706 76.0271 5.78706 79.8271 9.78706C82.8271 13.0871 83.9271 13.6871 85.3271 12.8871C86.3271 12.3871 89.3271 12.1871 92.0271 12.3871C101.027 13.2871 106.727 21.9871 103.627 30.0871C102.227 33.6871 102.227 34.5871 103.527 38.3871C107.127 48.9871 99.9271 59.8871 88.5271 60.9871C84.1271 61.3871 82.7271 62.0871 79.5271 65.2871C73.5271 71.2871 64.9271 72.7871 57.3271 69.2871L53.3271 67.4871L50.1271 70.2871C47.1271 72.8871 41.2271 75.1871 37.8271 75.1871C37.0271 75.0871 34.6271 74.4871 32.4271 73.6871ZM42.5271 70.1871C44.0271 69.5871 46.9271 67.3871 48.8271 65.1871L52.3271 61.1871L56.0271 63.7871C63.5271 69.0871 74.3271 67.2871 78.8271 59.9871C80.6271 57.0871 81.1271 56.7871 85.5271 57.0871C91.5271 57.3871 96.5271 54.3871 99.2271 48.8871C101.727 43.5871 100.727 38.7871 95.8271 33.9871C92.5271 30.6871 91.5271 30.1871 87.3271 30.1871C84.2271 30.1871 81.3271 30.8871 79.1271 32.2871C77.2271 33.4871 75.5271 34.2871 75.4271 34.0871C75.2271 33.8871 74.1271 31.7871 72.9271 29.3871C69.1271 21.8871 61.8271 19.2871 54.4271 22.8871L50.9271 24.4871L48.2271 21.2871C41.1271 12.7871 29.5271 12.2871 21.7271 20.0871C19.5271 22.1871 17.5271 25.4871 16.9271 27.8871C16.0271 31.1871 15.0271 32.3871 12.1271 33.8871C6.72706 36.4871 4.32705 40.3871 4.32705 46.1871C4.32705 54.7871 11.1271 60.7871 19.8271 59.6871C24.2271 59.1871 24.3271 59.1871 26.1271 63.0871C27.4271 65.8871 29.1271 67.5871 32.1271 69.0871C36.8271 71.4871 38.5271 71.5871 42.5271 70.1871Z" fill="#8FAFFF"/>
<g id="CLOUD134">
<path id="CLOUD1" d="M33.3378 74.6554C29.0378 73.6554 24.2378 70.0554 22.3378 66.5554C21.2378 64.3554 20.3378 63.7554 18.9378 64.1554C14.0378 65.7554 4.43775 60.5554 1.43775 54.5554C-0.462247 50.9554 -0.462247 42.3554 1.33775 38.7554C2.93775 35.8554 9.33775 29.6554 10.9378 29.6554C11.3378 29.6554 12.3378 28.0554 13.0378 25.9554C13.6378 23.9554 16.0378 20.3554 18.2378 17.9554C26.0378 9.45545 38.9378 8.65545 47.5378 16.0554C50.9378 18.9554 51.7378 19.2554 54.2378 18.3554C58.2378 16.9554 66.6378 18.0554 69.7378 20.3554C71.2378 21.4554 73.3378 23.7554 74.4378 25.4554C75.7378 27.4554 76.9378 28.3554 77.9378 27.9554C81.9378 26.3554 90.7378 26.4554 94.4378 28.1554C98.7378 30.2554 103.6 36.4 104.5 41.5C106.2 52.3 97.1378 61.6554 86.4378 61.6554C83.7378 61.6554 82.1378 62.4554 79.0378 65.5554C72.7378 71.8554 63.8378 73.2554 55.8378 69.2554C52.7378 67.6554 52.4378 67.7554 50.0378 70.0554C45.3378 74.3554 39.2378 76.0554 33.3378 74.6554ZM25.8378 20.8554C28.0378 19.7554 12.8421 33.2943 15.9378 34.1554C5.7 24.0554 78.4378 17.0184 77.9378 33.1629C79.5378 35.7629 87.9 33.2554 92.2 32.7554C96.9 32.2554 77.4378 62.8554 79.1378 59.2554C79.9378 57.2554 80.7378 57.0554 84.7378 57.3554C96.1378 58.3554 42.1 71.1554 36.2 61.6554C32.4 55.3554 86.2378 28.9554 78.8378 32.7554C76.5378 33.8554 77.9378 33.3629 77.9378 33.1629C72.2378 21.3629 66.5 48.7199 58.2 53.0199C55.1 54.6199 50.6378 24.8554 47.6378 21.6554C40.8378 14.3554 57.8378 19.3189 50.0378 24.4189C46.2378 26.9189 0.282535 39.1199 0.282535 42.5199C0.282535 43.6199 28.4378 19.6554 25.8378 20.8554C15.1378 26.0554 27.6 16.4554 38.2 21.6554C41.3 23.0554 41.3 41.4554 44.2 40.9554C47.9 40.3554 46.4378 62.3238 47.5378 65.1238C49.1378 68.9238 43.9378 56.2554 47.6378 57.3554C52.0378 58.6554 21.3378 23.0554 25.8378 20.8554Z" fill="#3870FF"/>
</g>
</g>
</svg>
