<svg width="120" height="122" viewBox="0 0 120 122" fill="none" xmlns="http://www.w3.org/2000/svg">
<g id="DRIZZLE">
<path id="Vector" d="M44.9362 105.979C38.0569 96.7466 38.4246 92.6816 48.3817 67.5114C51.4029 59.8119 54.0113 52.6778 54.2189 51.715C54.656 49.9292 54.8175 50.0472 56.6573 53.1238C57.7201 54.8902 61.7469 60.0589 65.6647 64.5288C79.9412 81.2666 83.3848 87.7428 82.0686 95.8204C81.2574 101.171 76.112 108.558 71.424 111.079C62.6442 115.812 50.613 113.467 44.9362 105.979ZM55.8114 57.335C64.3607 58.0051 67.2511 77.4495 67.5238 69.1053C67.6749 66.8632 77.3481 88.0405 76.2571 85.6343C74.3237 81.4988 57.446 60.0142 56.2691 60.2693C55.4897 60.3194 47.1298 80.5886 45.6788 85.9677C43.9613 92.3903 52.5179 53.197 54.973 57.4658C57.5743 62.2127 50.2246 56.8468 55.8114 57.335Z" fill="#3870FF"/>
<path id="Vector_2" d="M23.0728 52.9958C22.5907 51.2818 23.3405 47.3718 25.335 42.2658C27.9434 35.1316 28.3933 34.3458 29.31 35.6341C29.86 36.4071 32.0753 39.1388 34.2688 41.7308C39.0661 47.7096 39.9778 51.7182 37.3243 55.3526C33.3146 60.8447 24.7153 59.3952 23.0728 52.9958ZM29.0513 40.3978C30.0294 40.2452 29.464 39.8325 30.2306 38.7825C31.5868 36.9249 34.9614 48.9225 31.1615 44.291C29.6577 42.4502 29.518 42.472 28.1657 46.1897C27.3312 48.1806 26.7827 50.6278 26.7737 51.488C26.9392 53.4661 26.8156 40.7466 29.0513 40.3978Z" fill="#3870FF"/>
<path id="Vector_3" d="M55.3028 38.0199C53.4438 33.4434 54.0821 30.1949 58.7722 18.5137C60.9436 13.1653 62.8201 8.22073 63.1085 7.31694C63.3533 6.1337 65.2174 7.98987 71.3351 15.5518C80.1157 26.4198 81.617 29.6207 80.5763 35.7946C79.6253 41.1673 76.0681 44.5133 69.8828 45.693C63.7782 46.9316 57.535 43.6116 55.3028 38.0199ZM65.8188 12.7625C74.1759 14.0351 80.0199 34.5217 75.0636 27.0648C73.5969 25.0035 70.788 21.2193 68.6752 18.6863L64.8164 14.1355L63.5538 17.052C56.341 33.2061 56.3593 11.3041 65.8188 12.7625Z" fill="#3870FF"/>
</g>
</svg>
