<svg width="103" height="64" viewBox="0 0 103 64" fill="none" xmlns="http://www.w3.org/2000/svg">
<g id="HAZE">
<path id="Vector" d="M39 56.5C48.7308 52.1451 29.5 69.5 13.5 38C15.4 37.6 30.3 31.2 32 29.5L42.8 9.6L59 10C64.9 13.7 79 26.5 82 21C82.8 19.4 82.1 42 85.2 42C90.6 42 68.8 44.8 71 39.8C72.5 36.4 34.7 14.7 33.7 11.4C31.5 3.8 87.3 14.2 80.9 17.4C76.7 19.5 35.3 40.1 33.7 36.5C31.2 30.9 64.2 7.2 59 10C57.4 10.8 18.7 43.4 15 40.5C6.7 34.2 33.3 2.9 28.1 11.4C26.9 13.2 13.5 37.2 13.5 38C13.5 38.9 52.1 33.1 50.5 34C46.6 36 48.6 33.7 47.8 38C47.3 40.4 14.7 38.2 13.5 38C12.6 37.8 11.4 31.6 11.2 30.5C10.8 27.3 15.2 19.7 18.7 17.5C20.5 16.4 22.4 14.1 23 12.4C24.3 8.5 29.6 3.1 33.7 1.4C35.5 0.6 39.6 0 42.8 0C47.5 0 49.5 0.6 53.3 3C56.9 5.2 58.7 5.8 61 5.4C65.9 4.4 70.9 5.9 75 9.6C78.6 12.8 79.3 13.1 83.2 12.5C98.4 10.2 108.6 28.4 98.6 39.8C95.2 43.7 90.6 46 86 46C84.4 46 83 46.5 83 47C83 47.6 80.9 49.4 78.3 51C74.6 53.4 72.5 54 68.4 54C65.5 54 62 53.5 60.7 52.9C58.7 52 57.7 52.3 54.5 54.4C50 57.5 38.5 59.2 39 56.5Z" fill="#3870FF"/>
<path id="Vector_2" d="M20.9499 54.8934L20.9501 54.8934L20.9494 54.883C20.8755 53.7992 20.9578 52.9917 21.1358 52.4535C21.3162 51.9077 21.5685 51.7036 21.7961 51.6727C22.0405 51.6396 22.3986 51.7814 22.8364 52.2568C23.265 52.7222 23.7263 53.463 24.1698 54.4976C24.5792 55.4696 25.1907 56.488 25.8525 57.3408C26.5082 58.1856 27.2346 58.8954 27.8844 59.2217C30.4136 60.5893 33.3535 59.5988 35.3119 57.6916C37.2716 55.7831 38.3398 52.868 37.0227 50.2864L37.0227 50.2863L37.0203 50.2818C36.4677 49.2519 35.9498 48.4295 35.2081 47.7931C34.4623 47.1531 33.5102 46.7175 32.115 46.418C29.3449 45.8236 24.7368 45.75 16.3 45.75C8.38939 45.75 4.33673 45.7244 2.25746 45.4521C1.20771 45.3146 0.729598 45.1205 0.500829 44.8941C0.289099 44.6846 0.25 44.4067 0.25 43.9C0.25 43.3875 0.285016 43.1262 0.496625 42.9331C0.60928 42.8303 0.790201 42.7309 1.09194 42.6444C1.39323 42.558 1.79959 42.4888 2.34877 42.4363C4.55553 42.2256 8.88501 42.2997 17.3956 42.4499L17.3957 42.4499L34.7971 42.7482L37.7262 45.5797L37.7267 45.5802C39.0214 46.8251 39.7643 47.7201 40.1936 48.7696C40.6239 49.8215 40.75 51.0545 40.75 53C40.75 54.8947 40.6242 56.1307 40.2291 57.1604C39.8361 58.1845 39.1672 59.0289 38.0272 60.1193L38.0259 60.1206C34.6956 63.3529 30.5038 64.1279 26.6025 62.4719C24.6217 61.5305 23.239 60.5524 22.3368 59.3615C21.4381 58.1753 20.9989 56.7547 20.9499 54.8934Z" fill="#8FAFFF" stroke="#3870FF" stroke-width="0.5"/>
<path id="Vector_3" d="M45.8563 35.6439L45.8562 35.6436C45.6736 35.6857 45.3453 35.7243 44.9044 35.7611C44.4576 35.7983 43.8796 35.8348 43.1877 35.87C41.8036 35.9405 39.9575 36.0061 37.7815 36.0624C33.4291 36.175 27.7519 36.25 21.8 36.25C11.091 36.25 5.65829 36.2503 2.89854 36.5114C2.21065 36.5765 1.6987 36.657 1.31721 36.7549C0.934163 36.8531 0.699492 36.9649 0.552346 37.0817C0.284681 37.2943 0.25 37.5659 0.25 38.1C0.25 38.3544 0.256124 38.5389 0.29944 38.6912C0.338625 38.8289 0.409369 38.9425 0.558557 39.0465C0.717564 39.1573 0.973325 39.262 1.39168 39.3514C1.80764 39.4403 2.36635 39.5103 3.11752 39.5631C6.1291 39.7747 12.0889 39.7001 23.8968 39.55H23.8969L47.7977 39.2513L50.6258 36.5207L45.8563 35.6439ZM45.8563 35.6439L45.8677 35.6407M45.8563 35.6439L45.8677 35.6407M45.8677 35.6407C47.5582 35.1652 48.9805 33.6998 49.8131 31.9578C50.6461 30.2148 50.9147 28.1417 50.2333 26.4102C49.0453 23.2613 46.4698 21.8161 43.829 22.0384C41.198 22.2598 38.55 24.1304 37.1694 27.5034C36.5778 28.8832 35.9445 29.7169 35.3846 30.1225C35.1065 30.324 34.8569 30.4126 34.6456 30.423C34.4386 30.4331 34.2506 30.3692 34.0839 30.232C33.7396 29.9484 33.4674 29.3295 33.4311 28.378C33.3951 27.4375 33.5927 26.215 34.1338 24.7887L34.1341 24.7878M45.8677 35.6407L34.1341 24.7878M34.1341 24.7878C34.7074 23.259 36.2823 21.6207 38.188 20.3584C40.0919 19.0974 42.2684 18.25 44 18.25C45.9834 18.25 48.1322 19.099 49.9132 20.4255C51.6949 21.7526 53.0767 23.5338 53.5582 25.3636L53.5587 25.3654M34.1341 24.7878L53.5587 25.3654M53.5587 25.3654C54.2019 27.7403 54.3184 29.6933 53.8581 31.462M53.5587 25.3654L53.8581 31.462M53.8581 31.462C53.3981 33.2294 52.3547 34.8411 50.6264 36.5201L53.8581 31.462Z" fill="#8FAFFF" stroke="#3870FF" stroke-width="0.5"/>
</g>
</svg>
