<svg width="107" height="89" viewBox="0 0 107 89" fill="none" xmlns="http://www.w3.org/2000/svg">
<g id="RAIN">
<path id="CLOUD1" d="M33.3378 63.6554C29.0378 62.6554 24.2378 59.0554 22.3378 55.5554C21.2378 53.3554 20.3378 52.7554 18.9378 53.1554C14.0378 54.7554 4.43775 49.5554 1.43775 43.5554C-0.462247 39.9554 -0.462247 31.3554 1.33775 27.7554C2.93775 24.8554 9.33775 18.6554 10.9378 18.6554C11.3378 18.6554 12.3378 17.0554 13.0378 14.9554C13.6378 12.9554 16.0378 9.35545 18.2378 6.95545C26.0378 -1.54455 38.9378 -2.34455 47.5378 5.05545C50.9378 7.95545 51.7378 8.25545 54.2378 7.35545C58.2378 5.95545 66.6378 7.05544 69.7378 9.35544C71.2378 10.4554 73.3378 12.7554 74.4378 14.4554C75.7378 16.4554 76.9378 17.3554 77.9378 16.9554C81.9378 15.3554 90.7378 15.4554 94.4378 17.1554C98.7378 19.2554 103.6 25.4 104.5 30.5C106.2 41.3 97.1378 50.6554 86.4378 50.6554C83.7378 50.6554 82.1378 51.4554 79.0378 54.5554C72.7378 60.8554 63.8378 62.2554 55.8378 58.2554C52.7378 56.6554 52.4378 56.7554 50.0378 59.0554C45.3378 63.3554 39.2378 65.0554 33.3378 63.6554ZM25.8378 9.85545C28.0378 8.75545 12.8421 22.2943 15.9378 23.1554C5.7 13.0554 78.4378 6.01837 77.9378 22.1629C79.5378 24.7629 87.9 22.2554 92.2 21.7554C96.9 21.2554 77.4378 51.8554 79.1378 48.2554C79.9378 46.2554 80.7378 46.0554 84.7378 46.3554C96.1378 47.3554 42.1 60.1554 36.2 50.6554C32.4 44.3554 86.2378 17.9554 78.8378 21.7554C76.5378 22.8554 77.9378 22.3629 77.9378 22.1629C72.2378 10.3629 66.5 37.7199 58.2 42.0199C55.1 43.6199 50.6378 13.8554 47.6378 10.6554C40.8378 3.35544 57.8378 8.31895 50.0378 13.4189C46.2378 15.9189 0.282535 28.1199 0.282535 31.5199C0.282535 32.6199 28.4378 8.65545 25.8378 9.85545C15.1378 15.0554 27.6 5.45544 38.2 10.6554C41.3 12.0554 41.3 30.4554 44.2 29.9554C47.9 29.3554 46.4378 51.3238 47.5378 54.1238C49.1378 57.9238 43.9378 45.2554 47.6378 46.3554C52.0378 47.6554 21.3378 12.0554 25.8378 9.85545Z" fill="#3870FF"/>
<g id="DRIZZLE">
<path id="Vector" d="M66.0923 53.7299L66.0931 53.7287C66.1807 53.5861 66.268 53.4437 66.3549 53.3018C65.8686 54.2814 65.3763 55.3142 64.9004 56.3393C63.7619 58.7921 62.7102 61.2177 62.0513 62.7992C61.7236 63.5859 61.4884 64.1749 61.3895 64.4535C61.367 64.5168 61.3423 64.5894 61.3291 64.6471C61.3258 64.6618 61.3188 64.6939 61.3156 64.7329C61.3141 64.7514 61.3117 64.7904 61.3176 64.8389C61.3214 64.8696 61.3379 65.0008 61.447 65.1193C61.5005 65.1695 61.632 65.2462 61.7081 65.2693C61.7786 65.2797 61.9048 65.2731 61.9591 65.2602C62.0653 65.2286 62.1322 65.1699 62.1511 65.1532C62.1979 65.1116 62.2277 65.0691 62.2359 65.0575L62.2363 65.0569C62.2739 65.0033 62.3126 64.9284 62.3425 64.8689C62.3787 64.7972 62.4243 64.7025 62.4794 64.5847C63.1954 63.0651 65.3601 59.468 67.4231 56.2338C68.4512 54.6219 69.4464 53.1121 70.2128 52.0108C70.5967 51.4589 70.9187 51.0162 71.1564 50.716C71.1861 50.6786 71.2139 50.644 71.24 50.6122C71.2916 50.6794 71.3501 50.7589 71.4152 50.8512C71.6931 51.245 72.0582 51.8214 72.4849 52.5341C73.3364 53.9565 74.4133 55.8891 75.4919 57.9116C76.5701 59.9334 77.647 62.0393 78.4986 63.8072C79.3123 65.4963 79.8989 66.8339 80.1015 67.5032L80.1108 67.5386C80.1396 67.6472 80.1596 67.7226 80.1656 67.7435L80.169 67.755L80.1738 67.7698C80.177 67.779 80.1921 67.8162 80.2056 67.8436C80.5551 68.1007 81.1083 67.8028 81.1463 67.5772C81.1443 67.5549 81.1401 67.5247 81.1387 67.5165C81.1368 67.5065 81.1349 67.4981 81.1345 67.4963L81.1344 67.4961C81.1324 67.4872 81.1295 67.4755 81.1273 67.4667L81.1005 67.3609L81.1006 67.3609L81.0991 67.3553C81.0889 67.317 81.0774 67.2767 81.0647 67.2344L81.0615 67.2223C80.9993 66.9874 80.8975 66.6033 80.7672 66.1166C80.483 65.0555 80.0627 63.5055 79.6191 61.9473C79.1975 60.4665 78.7524 58.9696 78.3822 57.8775C80.4301 61.5817 81.7482 64.3713 82.4765 66.6677C83.441 69.7092 83.3635 71.8624 82.5664 74.1283L82.5664 74.1283L82.5646 74.1335C82.062 75.6143 80.869 77.3215 79.3955 78.7942C77.9214 80.2675 76.2266 81.4461 74.7702 81.9232L74.7697 81.9233C69.1452 83.7728 62.3663 81.1278 59.8537 76.208C59.0672 74.6346 58.5393 73.3437 58.3053 72.0725C58.0733 70.8125 58.1259 69.5467 58.5411 68.0238C59.3835 64.9343 61.6954 60.8461 66.0923 53.7299ZM66.58 55.696C66.2326 56.2407 65.881 56.7976 65.5331 57.3546C65.6238 57.157 65.7154 56.9588 65.8075 56.7604C66.9418 54.3166 68.1548 51.8633 69.1431 50.2038C69.3657 49.8301 69.5718 49.5053 69.7587 49.234C69.7656 49.2425 69.7724 49.2509 69.7793 49.2592C69.9123 49.4193 70.0786 49.5715 70.2584 49.6751C70.3485 49.727 70.4588 49.7765 70.5825 49.7999C70.5926 49.8018 70.603 49.8036 70.6137 49.8052C70.5396 49.8884 70.4585 49.9865 70.3725 50.0952C70.1154 50.4198 69.7795 50.8825 69.3919 51.4396C68.615 52.5561 67.6119 54.0783 66.58 55.696ZM71.4459 48.9518C71.4449 48.8638 71.4363 48.7683 71.4203 48.6653C72.3814 49.0137 73.1438 49.8359 73.7608 50.9282C74.4314 52.1155 74.8872 53.547 75.2268 54.8197C75.3149 55.1497 75.3942 55.4649 75.4673 55.761C74.7 54.3574 73.9639 53.0578 73.3429 52.0204C72.9121 51.3009 72.5318 50.6992 72.2322 50.2747C72.0837 50.0642 71.9461 49.8845 71.826 49.7532C71.767 49.6887 71.6994 49.6217 71.6266 49.5674C71.5881 49.5387 71.4869 49.4649 71.3454 49.4379C71.3563 49.4168 71.3662 49.3953 71.3751 49.3737C71.4317 49.2354 71.4476 49.0881 71.4459 48.9518ZM78.4139 61.3743C77.899 60.3504 77.3447 59.2762 76.7829 58.2114C76.819 58.2029 76.8549 58.1908 76.8904 58.1748C77.034 58.1101 77.1225 58.0025 77.1713 57.9323C77.2103 57.8762 77.245 57.8123 77.2765 57.7436C77.3102 57.8372 77.3453 57.9367 77.3815 58.0417C77.6849 58.9209 78.0493 60.1178 78.4139 61.3743ZM76.8682 56.7887C76.8682 56.7885 76.8696 56.7901 76.8722 56.7938C76.8696 56.7906 76.8682 56.7888 76.8682 56.7887ZM76.838 56.0351C76.7176 56.1308 76.6634 56.2556 76.6383 56.3344C76.6347 56.3198 76.631 56.305 76.6272 56.29C76.5945 56.1588 76.5602 56.0184 76.5239 55.8704C76.4277 55.4776 76.3184 55.0314 76.193 54.5618C76.1065 54.2377 76.0115 53.8987 75.906 53.552C75.9529 53.6302 75.9998 53.7083 76.0467 53.786C76.4821 54.5301 76.895 55.2436 77.2861 55.9285C77.2563 55.9223 77.2243 55.9182 77.1901 55.9173C77.0542 55.9135 76.9317 55.9607 76.838 56.0351ZM71.7804 45.8129C71.9818 46.3404 72.4458 47.3025 73.0591 48.4766C72.5812 48.0819 72.034 47.7787 71.4061 47.6147C71.2484 47.5721 71.1 47.5382 70.9609 47.5135C70.9599 47.5126 70.9589 47.5118 70.958 47.511C70.8058 47.382 70.6191 47.3264 70.4304 47.3409C70.2591 47.354 70.1114 47.4222 69.9974 47.4927C69.9554 47.5187 69.9141 47.5474 69.8737 47.5782C69.8264 47.6005 69.7808 47.6268 69.7376 47.6573C70.1711 46.9155 70.5376 46.2777 70.8139 45.7847C71.0796 45.3107 71.2775 44.9435 71.3635 44.7513C71.4738 45.0106 71.608 45.358 71.7799 45.8116L71.7804 45.8129ZM70.4428 49.0208C70.4426 49.0205 70.443 49.0171 70.4445 49.0112C70.4437 49.0181 70.443 49.021 70.4428 49.0208ZM70.7912 48.8246C70.7914 48.8251 70.7873 48.824 70.7784 48.8197C70.7866 48.822 70.791 48.8241 70.7912 48.8246ZM71.6007 44.2765C71.6055 44.2705 71.6054 44.2717 71.6002 44.2771L71.6007 44.2765Z" fill="#3870FF" stroke="#8FAFFF"/>
<path id="Vector_2" d="M61.1551 35.8926L61.1553 35.8926L61.1541 35.8811C61.1132 35.4622 61.2649 34.7122 61.6873 33.6537C62.1008 32.6173 62.747 31.3497 63.6184 29.9256L63.6186 29.9257L63.624 29.9162C64.8147 27.8715 65.4649 26.8061 65.8621 26.3483C65.8707 26.3384 65.879 26.329 65.887 26.3201C65.9991 26.5523 66.2265 26.9812 66.5233 27.5235C66.3896 27.5634 66.279 27.6394 66.1941 27.7206C65.8806 28.0206 65.7541 28.2928 65.6888 28.4345C65.6801 28.4345 65.6707 28.4344 65.6602 28.4342C65.2468 28.4251 64.9412 28.6993 64.7465 28.9368C64.537 29.1925 64.3509 29.5331 64.1855 29.8996C63.8524 30.6379 63.5541 31.5941 63.3094 32.4884C63.0803 33.326 62.8929 34.13 62.7651 34.6824C62.6726 34.9356 62.6056 35.1572 62.5741 35.323L62.5698 35.3461L62.5676 35.3695C62.5637 35.4106 62.5606 35.4503 62.5592 35.4848C62.5586 35.5015 62.558 35.5245 62.559 35.5493C62.559 35.5496 62.559 35.5501 62.559 35.5506C62.5594 35.5629 62.5615 35.6325 62.5887 35.7098L62.5892 35.7112C62.5988 35.7387 62.6533 35.8943 62.8256 35.9867C63.0745 36.1203 63.294 36.0009 63.3731 35.9387C63.4449 35.8822 63.4831 35.8199 63.4935 35.8027C63.5094 35.7766 63.5201 35.7539 63.526 35.7408C63.5461 35.6958 63.56 35.6485 63.5668 35.6252C63.5991 35.5136 63.6501 35.2933 63.7121 35.0255L63.7228 34.9795C63.7235 34.9762 63.7243 34.9729 63.725 34.9697C63.7959 34.7802 63.8871 34.5576 63.9971 34.3128C64.2414 33.769 64.5598 33.1565 64.9042 32.6236L64.9107 32.6135L64.9167 32.6031C65.2245 32.0725 65.4493 31.6949 65.6273 31.4378C65.6807 31.3608 65.7263 31.2997 65.7653 31.2517C65.8409 31.3628 65.9371 31.5281 66.0708 31.7682L66.0714 31.7691C66.3002 32.178 66.5337 32.5041 66.7894 32.6764C66.9272 32.7693 67.1258 32.8535 67.3573 32.8116C67.5918 32.7691 67.7441 32.6184 67.8321 32.488C67.9913 32.2521 68.051 31.9235 68.0782 31.6408C68.1078 31.3328 68.1066 30.9756 68.0831 30.6119C68.0752 30.4889 68.0646 30.3633 68.0514 30.2367C68.1124 30.3424 68.1736 30.4481 68.2346 30.5535C69.3517 32.6022 69.9028 34.1894 69.9597 35.4648C70.015 36.7051 69.6049 37.6794 68.7023 38.5431C65.9516 41.1754 61.4238 39.4938 61.1551 35.8926ZM67.0853 31.5179C67.0429 31.4516 66.9958 31.3733 66.9442 31.2811C66.7739 30.9754 66.609 30.6845 66.4407 30.4902C66.3537 30.3899 66.2324 30.2745 66.0686 30.2064C65.8837 30.1295 65.6875 30.1308 65.5053 30.202C65.3434 30.2653 65.2144 30.375 65.1139 30.4794C65.0554 30.5401 64.9976 30.6087 64.9398 30.6835C64.9916 30.553 65.044 30.4283 65.097 30.3109C65.2481 29.976 65.3918 29.7271 65.52 29.5706C65.5986 29.4747 65.6461 29.4434 65.6622 29.4343C65.8357 29.4364 66.0273 29.4184 66.2013 29.3247C66.4033 29.216 66.4995 29.0503 66.5518 28.9475C66.5694 28.9129 66.5847 28.8805 66.5995 28.8492C66.6278 28.7891 66.6542 28.7333 66.6909 28.6747C66.7099 28.7195 66.7293 28.7697 66.7488 28.8253C66.915 29.2977 67.0424 30.0125 67.0852 30.6762C67.1056 30.9931 67.1058 31.2836 67.0853 31.5179Z" fill="#3870FF" stroke="#8FAFFF"/>
<path id="Vector_3" d="M78.2158 50.3632L78.2152 50.3603C77.9175 48.9574 77.9409 47.8342 78.5255 46.2588C78.9721 45.0555 79.7437 43.5948 80.9601 41.5649C81.0099 41.7406 81.097 41.9209 81.2478 42.0642C81.4477 42.254 81.7057 42.3275 81.9699 42.3023C82.2154 42.2788 82.4576 42.1727 82.6881 42.0271C82.9229 41.8786 83.1756 41.6699 83.4469 41.4021C83.9894 40.8667 84.643 40.0585 85.4183 38.9172L85.4183 38.9173L85.4215 38.9125L86.059 37.9506L87.5017 40.4324C88.4982 42.1795 89.7828 44.76 90.4476 46.1655C90.5889 46.4901 90.7215 46.755 90.8459 46.9612C90.9646 47.1577 91.1007 47.3434 91.2614 47.4644C91.3447 47.5271 91.4667 47.5969 91.6218 47.6136C91.794 47.6322 91.9548 47.5792 92.0795 47.4797C92.2838 47.3166 92.3507 47.0638 92.3804 46.9158C92.4497 46.5691 92.441 46.0695 92.3829 45.5111C92.3387 45.0863 92.2631 44.6025 92.1565 44.0836C92.6245 45.1297 92.9504 46.0127 93.1548 46.8035C93.6212 48.6081 93.4557 49.9382 92.8316 51.6826C92.2843 53.1717 91.4277 54.278 90.271 55.0228C89.1092 55.7708 87.6072 56.1779 85.7348 56.1998L85.7348 56.1998L85.7289 56.1999C82.124 56.2844 78.9137 53.753 78.2158 50.3632ZM82.0163 40.2541C82.1104 39.9056 82.2558 39.5257 82.4467 39.1467C82.6621 38.8045 82.8746 38.4653 83.0823 38.132C83.2632 37.8973 83.4624 37.6762 83.678 37.4787C84.2733 36.9334 84.9711 36.583 85.7617 36.5891L85.6701 36.7274L84.5895 38.3577C83.8338 39.47 83.2221 40.2189 82.7445 40.6904C82.5055 40.9262 82.3092 41.0835 82.1538 41.1817C82.046 41.2499 81.9703 41.2817 81.9233 41.296C81.9198 41.284 81.9161 41.2693 81.9126 41.2518C81.8735 41.0576 81.8928 40.7118 82.0163 40.2541ZM86.4837 36.6913C86.5492 36.7091 86.6153 36.7294 86.682 36.7522L86.6829 36.7525C87.7425 37.113 88.6715 38.1145 89.4334 39.4579C90.1872 40.7871 90.7322 42.3716 91.0612 43.7615C91.2254 44.4547 91.3338 45.0914 91.3883 45.6146C91.3977 45.7052 91.4054 45.7913 91.4114 45.8726C91.3951 45.8363 91.3785 45.7986 91.3615 45.7596L91.3584 45.7523L91.355 45.7451C90.686 44.3303 89.3857 41.7169 88.3693 39.9352L88.3693 39.9352L88.3673 39.9316L86.5191 36.7523L86.4837 36.6913ZM91.3816 46.7863C91.3816 46.7862 91.3823 46.7843 91.3839 46.781C91.3825 46.7848 91.3817 46.7865 91.3816 46.7863ZM88.0762 36.353C87.7422 36.1218 87.3857 35.9354 87.0058 35.8061C86.0941 35.4941 85.2565 35.5383 84.5184 35.8025C85.235 34.6269 85.7959 33.6845 86.0765 33.1936C86.1704 33.3026 86.2931 33.4604 86.448 33.6828C86.8393 34.2443 87.3669 35.1112 88.0762 36.353ZM86.257 32.8602C86.257 32.8603 86.2564 32.8618 86.2549 32.8645C86.2562 32.8614 86.2569 32.8601 86.257 32.8602ZM85.8671 32.9902C85.8653 32.9893 85.8643 32.9888 85.8643 32.9887C85.8643 32.9887 85.8652 32.9891 85.8671 32.9902Z" fill="#3870FF" stroke="#8FAFFF"/>
</g>
</g>
</svg>
