<svg width="88" height="100" viewBox="0 0 88 100" fill="none" xmlns="http://www.w3.org/2000/svg">
<g id="SNOW">
<g id="snow">
<mask id="path-1-inside-1" fill="white">
<path d="M42.7 99.4C42.3 99 42 96.5 42 93.8C42 88.8 41.2 87.9 39 90.5C37.4 92.4 35.1 92.4 34.4 90.5C34 89.6 35.4 87.3 37.9 84.5C40.4 81.7 42 79.1 42 77.5C42 76.1 41.6 75 41.2 75C40.8 75 38.2 77.3 35.5 80C30.5 85.1 27 86.4 27 83.2C27 82.2 30.4 78.1 34.5 74L42 66.6V60.8C42 57.6 41.7 55 41.4 55C41 55 32.8 59.4 31.2 60.6C31 60.7 29.6 65.4 28.1 71.1C26.1 78.6 24.8 81.6 23.7 81.8C20.4 82.5 20.4 78.4 23.6 67.2C24.2 65.1 24.1 65 21.7 66.1C19.8 67 18.8 68.7 17.5 73.2C16.1 78.3 15.6 79.1 13.7 78.8C11.9 78.6 11.5 77.9 11.8 75.2L12 72L7.90001 74C0.400014 77.9 -1.79999 73.8 5.30001 69.3C9.40001 66.7 9.40001 66.6 7.00001 66C4.50001 65.4 3.10001 62.5 4.70001 60.9C5.20001 60.4 7.90001 60.7 10.9 61.5C14.6 62.5 16.9 62.6 18.2 61.9C21.2 60.3 20.3 59.3 14.8 58C8.10001 56.4 6.00001 55.3 6.00001 53.4C6.00001 50.8 8.60001 50.8 18.5 53.5L28.1 56.1L33 53.3C35.8 51.8 38 50.3 38 50C38 49.7 35.8 48.2 33 46.7L28 43.9L18 46.6C10.7 48.6 7.60001 49 6.80001 48.2C4.80001 46.2 6.90001 44.2 12.7 42.5C21.9 39.9 21.8 40 18.9 38.5C16.7 37.3 15.5 37.3 10.9 38.5C7.90001 39.3 5.20001 39.6 4.70001 39.1C3.10001 37.5 4.50001 34.6 7.00001 34C9.40001 33.4 9.40001 33.3 5.30001 30.7C2.60001 29 1.00001 27.2 1.00001 26C1.00001 23.5 3.00001 23.5 8.00001 26L12 28L11.8 24.8C11.5 22.1 11.9 21.4 13.7 21.2C15.6 20.9 16.1 21.7 17.5 26.8C18.8 31.3 19.8 33 21.7 33.9C24.1 35 24.2 34.9 23.6 32.8C20.4 21.6 20.4 17.5 23.7 18.2C24.8 18.4 26.1 21.4 28.1 28.9C29.6 34.6 31 39.3 31.2 39.4C32.8 40.6 41 45 41.4 45C41.7 45 42 42.4 42 39.2V33.4L34.5 26C30.4 21.9 27 17.8 27 16.8C27 13.6 30.5 14.9 35.5 20C38.2 22.8 40.8 25 41.2 25C41.6 25 42 23.9 42 22.5C42 20.9 40.4 18.3 37.9 15.5C35.4 12.7 34 10.4 34.4 9.5C35.1 7.6 37.4 7.6 39 9.5C41.1 12.1 41.9 11.2 42.2 5.8C42.5 1.3 42.8 0.5 44.5 0.5C46.2 0.5 46.5 1.3 46.8 5.9C47.1 11.1 47.2 11.2 49 9.5C50.1 8.5 51.6 8 52.5 8.3C55 9.3 54.2 12.4 50.5 16C48 18.4 47 20.3 47 22.4V25.4L52.3 20.2C55.2 17.3 58.3 15 59.2 15C63.1 15 61.9 17.6 54.6 24.9L47 32.5V38.9V45.2L52.2 42.2L57.4 39.1L60 29.4C62.6 19.6 64.8 16.4 67.1 18.7C67.9 19.5 67.7 21.7 66.2 27.1C65.1 31.2 64.3 34.6 64.5 34.8C64.7 35 66 34.4 67.3 33.5C69 32.4 70.1 30.6 70.5 28C71.3 23 73.2 20.5 75.5 21.4C76.8 21.9 77.1 22.7 76.6 25.1C76.3 26.8 76.4 28 76.8 27.8C77.2 27.6 79.1 26.6 81.2 25.6C88.1 22 90.8 26.3 84 30.1C79.9 32.4 78.9 34 81.4 34C82.1 34 83.3 34.7 84 35.6C85.1 36.8 85.1 37.4 83.9 38.6C82.6 39.8 81.8 39.8 77.2 38.5C73 37.2 71.7 37.2 70 38.2C68.9 38.9 68 39.7 68 40C68 40.3 71.1 41.4 74.9 42.3C81.8 44.1 83.5 45.5 82 48C81.3 49.2 79.3 48.9 70.6 46.7L60 43.9L54.9 46.9L49.7 49.8L53.6 52.2C55.8 53.6 58 55 58.7 55.4C59.4 55.7 64.7 54.8 70.5 53.3C79.4 51 81.2 50.7 81.9 51.9C83.5 54.5 81.9 55.9 74.9 57.7C71.1 58.6 68 59.7 68 60C68 60.3 68.9 61.1 70 61.8C71.7 62.8 73 62.8 77.2 61.5C81.8 60.2 82.6 60.2 83.9 61.4C85.1 62.6 85.1 63.2 84 64.4C83.3 65.3 82.1 66 81.4 66C78.9 66 79.9 67.6 84 69.9C86.2 71.1 88 72.7 88 73.5C88 76 84.1 76.3 80.4 74.1C75.9 71.4 75.9 71.4 76.6 75C77.1 77.3 76.8 78.1 75.5 78.6C73.2 79.5 71.3 77 70.5 72C70.1 69.4 69 67.6 67.3 66.5C66 65.6 64.7 65 64.5 65.2C64.3 65.4 65.1 68.8 66.2 72.9C67.7 78.3 67.9 80.5 67.1 81.3C64.8 83.6 62.6 80.4 60 70.6L57.4 60.9L52.2 57.8L47 54.8V60.6V66.4L54.6 74.2C58.8 78.4 62 82.5 61.8 83.2C60.8 86.2 57.6 85 52.4 79.9L47 74.6V77.6C47 79.7 48 81.6 50.5 84C55.6 88.9 54.8 94.1 49.5 90.6L47.1 89L46.8 94.3C46.6 98 46.1 99.6 45 99.8C44.1 99.9 43.1 99.8 42.7 99.4Z"/>
</mask>
<path d="M42.7 99.4C42.3 99 42 96.5 42 93.8C42 88.8 41.2 87.9 39 90.5C37.4 92.4 35.1 92.4 34.4 90.5C34 89.6 35.4 87.3 37.9 84.5C40.4 81.7 42 79.1 42 77.5C42 76.1 41.6 75 41.2 75C40.8 75 38.2 77.3 35.5 80C30.5 85.1 27 86.4 27 83.2C27 82.2 30.4 78.1 34.5 74L42 66.6V60.8C42 57.6 41.7 55 41.4 55C41 55 32.8 59.4 31.2 60.6C31 60.7 29.6 65.4 28.1 71.1C26.1 78.6 24.8 81.6 23.7 81.8C20.4 82.5 20.4 78.4 23.6 67.2C24.2 65.1 24.1 65 21.7 66.1C19.8 67 18.8 68.7 17.5 73.2C16.1 78.3 15.6 79.1 13.7 78.8C11.9 78.6 11.5 77.9 11.8 75.2L12 72L7.90001 74C0.400014 77.9 -1.79999 73.8 5.30001 69.3C9.40001 66.7 9.40001 66.6 7.00001 66C4.50001 65.4 3.10001 62.5 4.70001 60.9C5.20001 60.4 7.90001 60.7 10.9 61.5C14.6 62.5 16.9 62.6 18.2 61.9C21.2 60.3 20.3 59.3 14.8 58C8.10001 56.4 6.00001 55.3 6.00001 53.4C6.00001 50.8 8.60001 50.8 18.5 53.5L28.1 56.1L33 53.3C35.8 51.8 38 50.3 38 50C38 49.7 35.8 48.2 33 46.7L28 43.9L18 46.6C10.7 48.6 7.60001 49 6.80001 48.2C4.80001 46.2 6.90001 44.2 12.7 42.5C21.9 39.9 21.8 40 18.9 38.5C16.7 37.3 15.5 37.3 10.9 38.5C7.90001 39.3 5.20001 39.6 4.70001 39.1C3.10001 37.5 4.50001 34.6 7.00001 34C9.40001 33.4 9.40001 33.3 5.30001 30.7C2.60001 29 1.00001 27.2 1.00001 26C1.00001 23.5 3.00001 23.5 8.00001 26L12 28L11.8 24.8C11.5 22.1 11.9 21.4 13.7 21.2C15.6 20.9 16.1 21.7 17.5 26.8C18.8 31.3 19.8 33 21.7 33.9C24.1 35 24.2 34.9 23.6 32.8C20.4 21.6 20.4 17.5 23.7 18.2C24.8 18.4 26.1 21.4 28.1 28.9C29.6 34.6 31 39.3 31.2 39.4C32.8 40.6 41 45 41.4 45C41.7 45 42 42.4 42 39.2V33.4L34.5 26C30.4 21.9 27 17.8 27 16.8C27 13.6 30.5 14.9 35.5 20C38.2 22.8 40.8 25 41.2 25C41.6 25 42 23.9 42 22.5C42 20.9 40.4 18.3 37.9 15.5C35.4 12.7 34 10.4 34.4 9.5C35.1 7.6 37.4 7.6 39 9.5C41.1 12.1 41.9 11.2 42.2 5.8C42.5 1.3 42.8 0.5 44.5 0.5C46.2 0.5 46.5 1.3 46.8 5.9C47.1 11.1 47.2 11.2 49 9.5C50.1 8.5 51.6 8 52.5 8.3C55 9.3 54.2 12.4 50.5 16C48 18.4 47 20.3 47 22.4V25.4L52.3 20.2C55.2 17.3 58.3 15 59.2 15C63.1 15 61.9 17.6 54.6 24.9L47 32.5V38.9V45.2L52.2 42.2L57.4 39.1L60 29.4C62.6 19.6 64.8 16.4 67.1 18.7C67.9 19.5 67.7 21.7 66.2 27.1C65.1 31.2 64.3 34.6 64.5 34.8C64.7 35 66 34.4 67.3 33.5C69 32.4 70.1 30.6 70.5 28C71.3 23 73.2 20.5 75.5 21.4C76.8 21.9 77.1 22.7 76.6 25.1C76.3 26.8 76.4 28 76.8 27.8C77.2 27.6 79.1 26.6 81.2 25.6C88.1 22 90.8 26.3 84 30.1C79.9 32.4 78.9 34 81.4 34C82.1 34 83.3 34.7 84 35.6C85.1 36.8 85.1 37.4 83.9 38.6C82.6 39.8 81.8 39.8 77.2 38.5C73 37.2 71.7 37.2 70 38.2C68.9 38.9 68 39.7 68 40C68 40.3 71.1 41.4 74.9 42.3C81.8 44.1 83.5 45.5 82 48C81.3 49.2 79.3 48.9 70.6 46.7L60 43.9L54.9 46.9L49.7 49.8L53.6 52.2C55.8 53.6 58 55 58.7 55.4C59.4 55.7 64.7 54.8 70.5 53.3C79.4 51 81.2 50.7 81.9 51.9C83.5 54.5 81.9 55.9 74.9 57.7C71.1 58.6 68 59.7 68 60C68 60.3 68.9 61.1 70 61.8C71.7 62.8 73 62.8 77.2 61.5C81.8 60.2 82.6 60.2 83.9 61.4C85.1 62.6 85.1 63.2 84 64.4C83.3 65.3 82.1 66 81.4 66C78.9 66 79.9 67.6 84 69.9C86.2 71.1 88 72.7 88 73.5C88 76 84.1 76.3 80.4 74.1C75.9 71.4 75.9 71.4 76.6 75C77.1 77.3 76.8 78.1 75.5 78.6C73.2 79.5 71.3 77 70.5 72C70.1 69.4 69 67.6 67.3 66.5C66 65.6 64.7 65 64.5 65.2C64.3 65.4 65.1 68.8 66.2 72.9C67.7 78.3 67.9 80.5 67.1 81.3C64.8 83.6 62.6 80.4 60 70.6L57.4 60.9L52.2 57.8L47 54.8V60.6V66.4L54.6 74.2C58.8 78.4 62 82.5 61.8 83.2C60.8 86.2 57.6 85 52.4 79.9L47 74.6V77.6C47 79.7 48 81.6 50.5 84C55.6 88.9 54.8 94.1 49.5 90.6L47.1 89L46.8 94.3C46.6 98 46.1 99.6 45 99.8C44.1 99.9 43.1 99.8 42.7 99.4Z" fill="url(#paint0_radial)" stroke="#3870FF" stroke-width="2" mask="url(#path-1-inside-1)"/>
</g>
</g>
<defs>
<radialGradient id="paint0_radial" cx="0" cy="0" r="1" gradientUnits="userSpaceOnUse" gradientTransform="translate(44.4896 50.168) rotate(90) scale(49.668 43.5104)">
<stop stop-color="#8FAFFF"/>
<stop offset="0.0364583" stop-color="#E5E5E5"/>
<stop offset="1" stop-color="#6C96FF"/>
</radialGradient>
</defs>
</svg>
