<svg width="105" height="105" viewBox="0 0 434 434" fill="none" xmlns="http://www.w3.org/2000/svg">
<g id="SUN_ME">
<path id="SUN" d="M177.5 68.5L111 28V109L30 103L72 177L0 216.5L68 254L30 321H109L104 401.5L179 365.5L216.5 434L259.5 365.5L324.5 408V325L407 330.5L363.5 258L434 216.5L363.5 177L407 109H328.5V32.5L257 72.5L215 0L177.5 68.5Z" fill="#FF8B33"/>
<path id="Vector" d="M166.229 358.199C94.0364 332.387 50.882 248.499 72.6608 176.306C81.1304 149.284 88.39 136.378 108.959 113.389C135.578 83.9472 167.036 70.2346 215.03 68.6213C250.118 67.0081 253.345 67.8147 277.947 79.9141C325.538 103.306 357.399 144.444 365.062 192.035C375.548 257.775 342.88 320.691 281.576 352.15C251.731 367.879 200.511 370.299 166.229 358.199ZM166.229 343.5C224.709 320.915 115.412 273.094 108.959 213C98.8761 114.592 315.325 179.039 227 223C201.591 235.503 292.063 273.768 281.576 302C269.88 333.055 283.884 261.462 298 290.5C311.713 319.135 154.478 333.417 181.5 343.5C209.329 354.389 141.627 353.179 166.229 343.5Z" fill="#FF6E00"/>
</g>
</svg>
