<svg width="98" height="110" viewBox="0 0 98 110" fill="none" xmlns="http://www.w3.org/2000/svg">
<g id="THUNDERSTORM">
<path id="Vector" d="M0.117351 108.646C0.385282 107.574 5.07408 95.9194 10.2987 82.7908C15.5234 69.7961 19.8103 58.8109 19.8103 58.409C19.8103 58.0071 18.0687 57.7392 15.7913 57.7392C12.8441 57.7392 11.7724 57.0694 11.7724 55.4618C11.9063 54.1221 14.4517 41.2614 17.5329 26.9271L23.1594 0.803794L41.6467 0.401897L60 0L48.6129 22.7742L37.2258 45.5483L41.9146 45.9502L46.4695 46.3521L27.4463 72.4754C3.46649 105.431 -0.820409 111.191 0.117351 108.646Z" fill="#8FAFFF"/>
<path id="Vector_2" d="M16.0876 89.1C16.2876 88.3 19.7876 79.6 23.6876 69.8C27.5876 60.1 30.7876 51.9 30.7876 51.6C30.7876 51.3 29.4876 51.1 27.7876 51.1C25.5876 51.1 24.7876 50.6 24.7876 49.4C24.8876 48.4 26.7876 38.8 29.0876 28.1L33.2876 8.6L47.0876 8.3L60.7876 8L52.2876 25L43.7876 42L47.2876 42.3L50.6876 42.6L36.4876 62.1C18.5876 86.7 15.3876 91 16.0876 89.1Z" fill="#3870FF"/>
<path id="Vector_3" d="M49.2731 78.6381C51.8685 72.5385 56.0433 61.9356 58.8137 55.3536C61.4219 48.7674 64.1966 42.0232 64.8839 40.5804C65.9255 38.0108 65.123 37.665 58.6348 37.4942C54.5798 37.3874 51.1863 36.811 51.1991 36.3244C51.2119 35.8378 55.1178 29.2857 59.856 21.944L68.325 8.53251L82.1123 8.89563C89.5736 9.09215 95.7246 9.74109 95.7032 10.5521C95.6861 11.2009 92.9712 15.6743 89.7612 20.4592C86.5512 25.2441 83.8363 29.7175 83.8192 30.3663C83.8021 31.0151 86.7047 31.7408 90.2732 31.8348C93.8417 31.9288 96.7528 32.3301 96.74 32.8167C96.7186 33.6277 55.0953 79.4407 47.9241 86.7184C45.094 89.4032 45.2861 88.2721 49.2731 78.6381Z" fill="#8FAFFF"/>
<path id="Vector_4" d="M48.8955 71.3455C51.0026 66.3935 54.3919 57.7855 56.6411 52.4419C58.7586 47.0949 61.0112 41.6196 61.5691 40.4483C62.4147 38.3622 61.7633 38.0815 56.4959 37.9427C53.2037 37.856 50.4488 37.3881 50.4592 36.9931C50.4696 36.598 53.6405 31.2787 57.4872 25.3183L64.3628 14.4302L75.556 14.725C81.6135 14.8846 86.6071 15.4114 86.5898 16.0699C86.5759 16.5966 84.3718 20.2283 81.7658 24.1129C79.1597 27.9976 76.9557 31.6292 76.9418 32.156C76.9279 32.6827 79.2844 33.2719 82.1814 33.3482C85.0785 33.4245 87.4419 33.7503 87.4315 34.1453C87.4141 34.8038 53.6223 71.9971 47.8003 77.9054C45.5027 80.0851 45.6587 79.1668 48.8955 71.3455Z" fill="#3870FF"/>
</g>
</svg>
