<svg width="102" height="100" viewBox="0 0 102 100" fill="none" xmlns="http://www.w3.org/2000/svg">
<g id="THUNDER_CLOUD11">
<path id="Vector" d="M26.1 59.5C24.5 58.1 22.8 56 22.5 55C22 53.5 20.9 53 18.2 53C-1.38283e-05 52.9 -6.50001 28.8 9.19999 20C11.3 18.8 13 17.1 13 16.1C13 15.2 14.3 12.3 15.9 9.8C22.5 -0.599996 38.1 -3.1 47.3 4.9C50.2 7.5 51 7.7 56.8 7.2C64.4 6.7 68 8 72.4 13.2L75.7 17.1L80.2 15.9C82.7 15.2 86.2 15 88.4 15.4C93.5 16.4 100.6 23.5 101.6 28.5C103.7 39.9 96 50 85.2 50C81.9 50 80.8 50.5 79.1 52.9C76.7 56.3 69.6 60 65.7 60C63.4 60 63.2 59.7 63.8 57.9C64.3 56.7 57.3 49.2 59.5 48.5C63.7 47 76.7 49.6 77.6 46.8C78.1 45.2 78.8 45 82.3 45.5C93.4 47.1 60 58.6 54 49C50.4 43.1 52.8 41 46.5 44.8C44.7 45.9 73.8 24 73.5 24C73.3 24 59.1 49.4 58 47C54.8 39.6 71.8 51.5 64.5 54.5H59H57.5C53.3 50.2 48.1 44.8 42.5 44.8C35 44.8 45.7 47 43.5 54.5C42.5 58 34 55.1 31 56.5C25.7 59 12.5 43.9 13 50C13.4 54.2 6.29999 41.9 9.39999 44.8C12.8 47.9 13.6 48.1 18.7 47.9C24 47.6 24.3 47.8 25.5 50.6C26.2 52.2 27.7 54.4 28.9 55.4C31.1 57.4 31.7 60.5 30.1 61.4C29.6 61.8 27.8 60.9 26.1 59.5Z" fill="#3870FF"/>
<g id="TWO">
<path id="Vector_2" d="M27.7437 91.6261C29.9188 86.8219 33.4179 78.4709 35.7398 73.2868C37.9258 68.0994 40.2513 62.7875 40.8272 61.6512C41.7001 59.6273 41.0284 59.3553 35.5962 59.2228C32.2011 59.14 29.3601 58.6873 29.371 58.3041C29.3819 57.9209 32.6544 52.7599 36.624 46.9769L43.7194 36.4128L55.2628 36.6943C61.5098 36.8466 66.6594 37.3557 66.6413 37.9944C66.6267 38.5053 64.3521 42.0289 61.6628 45.798C58.9736 49.5671 56.699 53.0906 56.6844 53.6016C56.6699 54.1125 59.0998 54.6831 62.0875 54.7559C65.0752 54.8288 67.5124 55.1438 67.5015 55.527C67.4833 56.1657 32.6181 92.2563 26.6114 97.9896C24.241 100.105 24.4022 99.214 27.7437 91.6261Z" fill="#8FAFFF"/>
<path id="Vector_3" d="M34.3934 71.2011L34.3936 71.2012L34.3979 71.1909C36.1735 66.9734 38.0517 62.6808 38.509 61.7779L38.516 61.764L38.5222 61.7498C38.6985 61.3405 38.8482 60.9152 38.8166 60.5253C38.7994 60.3116 38.7283 60.1059 38.5862 59.9256C38.4486 59.7509 38.2662 59.6276 38.0679 59.5368C37.686 59.362 37.1533 59.2679 36.4874 59.2056C35.8085 59.1421 34.9324 59.1075 33.8295 59.0802C32.4677 59.0465 31.2234 58.9386 30.3281 58.8028C29.9397 58.7439 29.6292 58.6816 29.4077 58.6214C29.4747 58.4995 29.5597 58.3511 29.6622 58.1772C29.9583 57.6747 30.388 56.9809 30.9203 56.1467C31.9842 54.4792 33.4499 52.2632 35.0576 49.9202L35.0576 49.9202L35.0604 49.916L40.6632 41.5705L49.7594 41.7958C52.2874 41.8584 54.5852 41.993 56.2434 42.1752C57.0756 42.2666 57.7301 42.3682 58.1678 42.4744C58.2631 42.4975 58.3431 42.5196 58.409 42.5403C58.366 42.6263 58.3116 42.7287 58.2456 42.8471C58.044 43.2086 57.7502 43.6909 57.3848 44.2619C56.6549 45.4022 55.6531 46.8748 54.5656 48.3996C53.4712 49.934 52.4594 51.4209 51.7182 52.5791C51.3481 53.1573 51.0421 53.659 50.8262 54.046C50.7187 54.2388 50.6294 54.4105 50.5652 54.553C50.5332 54.624 50.5042 54.6948 50.4821 54.7617C50.4628 54.8202 50.4365 54.911 50.4338 55.0105C50.4264 55.2732 50.5776 55.4549 50.6817 55.5498C50.7923 55.6507 50.929 55.7283 51.0612 55.7897C51.3298 55.9145 51.6913 56.0226 52.1039 56.1136C52.9365 56.2973 54.0688 56.4309 55.3064 56.4616C56.508 56.4914 57.5889 56.5697 58.3607 56.6768C58.5875 56.7082 58.7809 56.7413 58.939 56.7746C58.7387 57.0054 58.4623 57.3137 58.1171 57.692C57.3355 58.5484 56.2125 59.7508 54.8478 61.1959C52.1189 64.0857 48.4301 67.9395 44.5886 71.9234C36.908 79.8887 28.6325 88.3579 26.1968 90.6838C26.0911 90.778 25.9935 90.8632 25.9036 90.9392C26.0054 90.6292 26.155 90.2266 26.3593 89.7164C26.719 88.8182 27.232 87.6255 27.9088 86.0872C28.7931 84.1325 29.9451 81.4592 31.1093 78.7535L31.2601 78.403C32.3764 75.8086 33.4942 73.2106 34.3934 71.2011ZM58.5175 42.2911C58.5175 42.291 58.5173 42.292 58.5167 42.2941C58.5172 42.2921 58.5174 42.2911 58.5175 42.2911ZM25.3186 91.3633C25.3146 91.3647 25.3149 91.3643 25.3191 91.3631L25.3186 91.3633ZM25.734 91.6392C25.7343 91.6416 25.7344 91.6429 25.7343 91.643C25.7343 91.643 25.7341 91.6418 25.734 91.6392Z" fill="#3870FF" stroke="#84A5FA"/>
</g>
</g>
</svg>
